<?xml version="1.0" encoding="utf-8"?>
<!-- Generator: Adobe Illustrator 23.0.1, SVG Export Plug-In . SVG Version: 6.00 Build 0)  -->
<svg version="1.1" id="Layer_1" xmlns="http://www.w3.org/2000/svg" xmlns:xlink="http://www.w3.org/1999/xlink" x="0px" y="0px"
	 viewBox="0 0 153.6 154.1" style="enable-background:new 0 0 153.6 154.1;" xml:space="preserve">
<style type="text/css">
	.st0{fill:#F9E7A2;}
	.st1{fill:#060909;}
	.st2{fill:#8C80BB;}
	.st3{fill:none;stroke:#F5F5F5;stroke-width:10;stroke-linecap:round;stroke-miterlimit:10;}
</style>
<g>
	<path class="st0" d="M0,50.1c-1.5-19.2,5.9-34,22.4-44c4.2-2.5,9-4.1,13.5-6.1c26.3,0,52.7,0,79,0c5.9,2.3,12.4,3.8,17.7,7
		c14.3,8.7,20.9,22.1,21.2,38.6c0.1,5.1-0.1,10.3-0.2,15.4c-4.3-12-12.4-19.5-25.3-20.8c-15.2-1.6-30.4-2.8-45.6-4.3
		c-15.5-1.5-31.1-2.7-46.5-4.8C18.1,28.8,7.6,33.9,0,50.1z"/>
	<path class="st1" d="M153.7,97.1c0.5,11.5,0.6,23-5.5,33.5c-8.5,14.7-21.2,22.9-38.2,23.3c-21.6,0.5-43.3,0.2-64.9,0.1
		c-27-0.1-46.9-21.7-45-48.8C5,93.7,13,86.9,26,85.7c31-2.7,61.9-5.8,92.9-9C137.8,74.7,146.7,79.7,153.7,97.1z"/>
	<path class="st2" d="M153.7,97.1c-7-17.4-15.9-22.4-34.9-20.4c-30.9,3.2-61.9,6.3-92.9,9c-13,1.1-21,8-25.9,19.5
		c0-18.3,0-36.7,0-55C7.6,34,18.1,28.8,36.2,31.3c15.4,2.1,31,3.3,46.5,4.8c15.2,1.5,30.4,2.7,45.6,4.3c13,1.3,21.1,8.8,25.3,20.8
		C153.6,73.1,153.7,85.1,153.7,97.1z"/>
	<polyline class="st3" points="22.8,117.2 38.3,132.7 64.9,106.1 	"/>
</g>
</svg>
