<?xml version="1.0" encoding="utf-8"?>
<!-- Generator: Adobe Illustrator 23.0.1, SVG Export Plug-In . SVG Version: 6.00 Build 0)  -->
<svg version="1.1" id="Layer_1" xmlns="http://www.w3.org/2000/svg" xmlns:xlink="http://www.w3.org/1999/xlink" x="0px" y="0px"
	 viewBox="0 0 18 19" style="enable-background:new 0 0 18 19;" xml:space="preserve">
<style type="text/css">
	.st0{fill:#8C88CD;}
</style>
<path class="st0" d="M17.5,7.7L10,0.7c0,0,0,0,0,0C9.7,0.4,9.4,0.3,9,0.3S8.3,0.4,8,0.6l0,0L0.5,7.7C0.3,7.9,0.2,8,0.1,8.2
	S0,8.6,0,8.8v8.7c0,0.4,0.2,0.8,0.4,1.1C0.7,18.8,1.1,19,1.5,19H6c0.4,0,0.8-0.2,1.1-0.4c0.3-0.3,0.4-0.7,0.4-1.1V13h3v4.5
	c0,0.4,0.2,0.8,0.4,1.1c0.3,0.3,0.7,0.4,1.1,0.4h4.5c0.4,0,0.8-0.2,1.1-0.4c0.3-0.3,0.4-0.7,0.4-1.1V8.8c0-0.2,0-0.4-0.1-0.6
	C17.8,8,17.7,7.9,17.5,7.7z M16.5,17.5H12V13c0-0.4-0.2-0.8-0.4-1.1c-0.3-0.3-0.7-0.4-1.1-0.4h-3c-0.4,0-0.8,0.2-1.1,0.4
	C6.2,12.2,6,12.6,6,13v4.5H1.5V8.8l0,0L9,1.7l7.5,7.1l0,0L16.5,17.5z"/>
</svg>
