<?xml version="1.0" encoding="utf-8"?>
<!-- Generator: Adobe Illustrator 23.0.1, SVG Export Plug-In . SVG Version: 6.00 Build 0)  -->
<svg version="1.1" id="Layer_1" xmlns="http://www.w3.org/2000/svg" xmlns:xlink="http://www.w3.org/1999/xlink" x="0px" y="0px"
	 viewBox="0 0 16.5 16.5" style="enable-background:new 0 0 16.5 16.5;" xml:space="preserve">
<style type="text/css">
	.st0{fill:#C6C6C6;}
</style>
<g>
	<path class="st0" d="M7.1,0.4C6.8,0.2,6.4,0,6,0H1.5C1.1,0,0.7,0.2,0.4,0.4C0.2,0.7,0,1.1,0,1.5V6c0,0.4,0.2,0.8,0.4,1.1
		c0.3,0.3,0.7,0.4,1.1,0.4H6c0.4,0,0.8-0.2,1.1-0.4C7.3,6.8,7.5,6.4,7.5,6V1.5C7.5,1.1,7.3,0.7,7.1,0.4z M6,6H1.5V1.5H6V6z"/>
	<path class="st0" d="M16.1,0.4C15.8,0.2,15.4,0,15,0h-4.5c-0.4,0-0.8,0.2-1.1,0.4C9.2,0.7,9,1.1,9,1.5V6c0,0.4,0.2,0.8,0.4,1.1
		c0.3,0.3,0.7,0.4,1.1,0.4H15c0.4,0,0.8-0.2,1.1-0.4c0.3-0.3,0.4-0.7,0.4-1.1V1.5C16.5,1.1,16.3,0.7,16.1,0.4z M15,6h-4.5V1.5H15V6z
		"/>
	<path class="st0" d="M7.1,9.4C6.8,9.2,6.4,9,6,9H1.5C1.1,9,0.7,9.2,0.4,9.4C0.2,9.7,0,10.1,0,10.5V15c0,0.4,0.2,0.8,0.4,1.1
		c0.3,0.3,0.7,0.4,1.1,0.4H6c0.4,0,0.8-0.2,1.1-0.4c0.3-0.3,0.4-0.7,0.4-1.1v-4.5C7.5,10.1,7.3,9.7,7.1,9.4z M6,15H1.5v-4.5H6V15z"
		/>
	<path class="st0" d="M16.1,9.4C15.8,9.2,15.4,9,15,9h-4.5c-0.4,0-0.8,0.2-1.1,0.4C9.2,9.7,9,10.1,9,10.5V15c0,0.4,0.2,0.8,0.4,1.1
		c0.3,0.3,0.7,0.4,1.1,0.4H15c0.4,0,0.8-0.2,1.1-0.4c0.3-0.3,0.4-0.7,0.4-1.1v-4.5C16.5,10.1,16.3,9.7,16.1,9.4z M15,15h-4.5v-4.5
		H15V15z"/>
</g>
</svg>
