<svg width="25" height="24" viewBox="0 0 25 24" fill="none" xmlns="http://www.w3.org/2000/svg">
<path d="M10.25 3.75H5.75C5.35218 3.75 4.97064 3.90804 4.68934 4.18934C4.40804 4.47064 4.25 4.85218 4.25 5.25V9.75C4.25 10.1478 4.40804 10.5294 4.68934 10.8107C4.97064 11.092 5.35218 11.25 5.75 11.25H10.25C10.6478 11.25 11.0294 11.092 11.3107 10.8107C11.592 10.5294 11.75 10.1478 11.75 9.75V5.25C11.75 4.85218 11.592 4.47064 11.3107 4.18934C11.0294 3.90804 10.6478 3.75 10.25 3.75ZM10.25 9.75H5.75V5.25H10.25V9.75ZM19.25 3.75H14.75C14.3522 3.75 13.9706 3.90804 13.6893 4.18934C13.408 4.47064 13.25 4.85218 13.25 5.25V9.75C13.25 10.1478 13.408 10.5294 13.6893 10.8107C13.9706 11.092 14.3522 11.25 14.75 11.25H19.25C19.6478 11.25 20.0294 11.092 20.3107 10.8107C20.592 10.5294 20.75 10.1478 20.75 9.75V5.25C20.75 4.85218 20.592 4.47064 20.3107 4.18934C20.0294 3.90804 19.6478 3.75 19.25 3.75ZM19.25 9.75H14.75V5.25H19.25V9.75ZM10.25 12.75H5.75C5.35218 12.75 4.97064 12.908 4.68934 13.1893C4.40804 13.4706 4.25 13.8522 4.25 14.25V18.75C4.25 19.1478 4.40804 19.5294 4.68934 19.8107C4.97064 20.092 5.35218 20.25 5.75 20.25H10.25C10.6478 20.25 11.0294 20.092 11.3107 19.8107C11.592 19.5294 11.75 19.1478 11.75 18.75V14.25C11.75 13.8522 11.592 13.4706 11.3107 13.1893C11.0294 12.908 10.6478 12.75 10.25 12.75ZM10.25 18.75H5.75V14.25H10.25V18.75ZM19.25 12.75H14.75C14.3522 12.75 13.9706 12.908 13.6893 13.1893C13.408 13.4706 13.25 13.8522 13.25 14.25V18.75C13.25 19.1478 13.408 19.5294 13.6893 19.8107C13.9706 20.092 14.3522 20.25 14.75 20.25H19.25C19.6478 20.25 20.0294 20.092 20.3107 19.8107C20.592 19.5294 20.75 19.1478 20.75 18.75V14.25C20.75 13.8522 20.592 13.4706 20.3107 13.1893C20.0294 12.908 19.6478 12.75 19.25 12.75ZM19.25 18.75H14.75V14.25H19.25V18.75Z" fill="#C6C6C6"/>
</svg>
